<?xml version="1.0" ?><svg xmlns="http://www.w3.org/2000/svg" xmlns:xlink="http://www.w3.org/1999/xlink"><symbol viewBox="0 0 100.353 100.352" id="location" xmlns="http://www.w3.org/2000/svg"><path d="M58.23 69.992l14.993-24.108c.049-.078.09-.16.122-.245a26.697 26.697 0 003.956-13.969c0-14.772-12.018-26.79-26.79-26.79S23.72 16.898 23.72 31.67c0 4.925 1.369 9.75 3.96 13.975.03.074.065.146.107.216l14.455 24.191c-11.221 1.586-18.6 6.2-18.6 11.797 0 6.935 11.785 12.366 26.829 12.366S77.3 88.783 77.3 81.849c.001-5.623-7.722-10.34-19.07-11.857zM30.373 44.294A23.708 23.708 0 0126.72 31.67c0-13.118 10.672-23.79 23.791-23.79 13.118 0 23.79 10.672 23.79 23.79 0 4.457-1.263 8.822-3.652 12.624-.05.08-.091.163-.124.249L54.685 70.01c-.238.365-.285.448-.576.926l-4 6.432-19.602-32.804a1.508 1.508 0 00-.134-.27zm20.099 46.921c-14.043 0-23.829-4.937-23.829-9.366 0-4.02 7.37-7.808 17.283-8.981l4.87 8.151c.269.449.751.726 1.274.73h.013c.518 0 1-.268 1.274-.708l5.12-8.232C66.548 73.9 74.3 77.784 74.3 81.849c.001 4.43-9.785 9.366-23.828 9.366z"/><path d="M60.213 31.67c0-5.371-4.37-9.741-9.741-9.741s-9.741 4.37-9.741 9.741 4.37 9.741 9.741 9.741c5.371 0 9.741-4.37 9.741-9.741zm-16.482 0c0-3.717 3.024-6.741 6.741-6.741s6.741 3.024 6.741 6.741-3.023 6.741-6.741 6.741-6.741-3.024-6.741-6.741z"/></symbol><symbol viewBox="0 0 256 256" id="phone" xmlns="http://www.w3.org/2000/svg"><path d="M153.62 38.451a6.005 6.005 0 017.346-4.248 86.16 86.16 0 0160.83 60.831 6 6 0 11-11.593 3.098 74.128 74.128 0 00-52.335-52.335 6 6 0 01-4.248-7.346zm-4.036 38.263a42.066 42.066 0 0129.702 29.702 6 6 0 0011.594-3.098 54.102 54.102 0 00-38.198-38.198 6 6 0 00-3.098 11.594zm79.988 98.115A54.069 54.069 0 01176 222C97.701 222 34 158.299 34 80a54.069 54.069 0 0147.17-53.572 14.028 14.028 0 0114.564 8.387l20.091 46.878a13.971 13.971 0 01-1.154 13.183l-16.636 25.419a1.926 1.926 0 00-.167 1.887 78.534 78.534 0 0036.27 36.106 1.923 1.923 0 001.891-.182l25.035-16.694a13.954 13.954 0 0113.283-1.22l46.837 20.074a14.026 14.026 0 018.388 14.563zm-11.906-1.504a1.973 1.973 0 00-1.21-2.03l-46.836-20.073a2.004 2.004 0 00-1.898.174l-25.035 16.695a13.966 13.966 0 01-13.766 1.004 90.591 90.591 0 01-41.836-41.647 13.982 13.982 0 01.91-13.724l16.635-25.42a1.997 1.997 0 00.165-1.885l-20.09-46.876a1.992 1.992 0 00-1.803-1.224 1.793 1.793 0 00-.227.015A42.045 42.045 0 0046 80a130.147 130.147 0 00130 130 42.045 42.045 0 0041.666-36.675z"/></symbol></svg>